<?xml version="1.0" encoding="UTF-8" standalone="no"?>
<!-- Created with Inkscape (http://www.inkscape.org/) -->

<svg
   width="35.696507mm"
   height="11.104828mm"
   viewBox="0 0 35.696506 11.104828"
   version="1.1"
   id="svg5"
   xml:space="preserve"
   sodipodi:docname="gaganos.svg"
   inkscape:version="1.2.2 (732a01da63, 2022-12-09)"
   xmlns:inkscape="http://www.inkscape.org/namespaces/inkscape"
   xmlns:sodipodi="http://sodipodi.sourceforge.net/DTD/sodipodi-0.dtd"
   xmlns:xlink="http://www.w3.org/1999/xlink"
   xmlns="http://www.w3.org/2000/svg"
   xmlns:svg="http://www.w3.org/2000/svg">
  <sodipodi:namedview
   id="namedview7"
   pagecolor="#ffffff"
   bordercolor="#000000"
   borderopacity="0.25"
   inkscape:showpageshadow="2"
   inkscape:pageopacity="0.0"
   inkscape:pagecheckerboard="0"
   inkscape:deskcolor="#d1d1d1"
   inkscape:document-units="mm"
   showgrid="false"
   inkscape:zoom="3.0182099"
   inkscape:cx="104.20084"
   inkscape:cy="14.246855"
   inkscape:window-width="1920"
   inkscape:window-height="1027"
   inkscape:window-x="-8"
   inkscape:window-y="-8"
   inkscape:window-maximized="1"
   inkscape:current-layer="layer1-3" />
  <defs
   id="defs2">
    <inkscape:perspective
   id="perspective47"
   inkscape:persp3d-origin="24.000001 : -269.89517 : 1"
   inkscape:vp_x="0 : -261.89517 : 1"
   inkscape:vp_y="0 : 999.99995 : 0"
   inkscape:vp_z="48.000003 : -261.89517 : 1"
   sodipodi:type="inkscape:persp3d" />
    <radialGradient
   cx="605.71429"
   cy="486.64789"
   fx="605.71429"
   fy="486.64789"
   gradientTransform="matrix(-2.774389,0,0,1.969706,112.7623,-872.8854)"
   gradientUnits="userSpaceOnUse"
   id="radialGradient6719"
   inkscape:collect="always"
   r="117.14286"
   xlink:href="#linearGradient5060" />
    <linearGradient
   id="linearGradient5060"
   inkscape:collect="always">
      <stop
   id="stop5062"
   offset="0"
   style="stop-color:black;stop-opacity:1;" />
      <stop
   id="stop5064"
   offset="1"
   style="stop-color:black;stop-opacity:0;" />
    </linearGradient>
    <radialGradient
   cx="605.71429"
   cy="486.64789"
   fx="605.71429"
   fy="486.64789"
   gradientTransform="matrix(2.774389,0,0,1.969706,-1891.633,-872.8854)"
   gradientUnits="userSpaceOnUse"
   id="radialGradient6717"
   inkscape:collect="always"
   r="117.14286"
   xlink:href="#linearGradient5060" />
    <linearGradient
   id="linearGradient5048">
      <stop
   id="stop5050"
   offset="0"
   style="stop-color:black;stop-opacity:0;" />
      <stop
   id="stop5056"
   offset="0.5"
   style="stop-color:black;stop-opacity:1;" />
      <stop
   id="stop5052"
   offset="1"
   style="stop-color:black;stop-opacity:0;" />
    </linearGradient>
    <linearGradient
   gradientTransform="matrix(2.774389,0,0,1.969706,-1892.179,-872.8854)"
   gradientUnits="userSpaceOnUse"
   id="linearGradient6715"
   inkscape:collect="always"
   x1="302.85715"
   x2="302.85715"
   xlink:href="#linearGradient5048"
   y1="366.64789"
   y2="609.50507" />
    <linearGradient
   id="linearGradient4750">
      <stop
   id="stop4752"
   offset="0"
   style="stop-color:#ffffff;stop-opacity:0;" />
      <stop
   id="stop4758"
   offset="0.5"
   style="stop-color:#ffffff;stop-opacity:1;" />
      <stop
   id="stop4754"
   offset="1"
   style="stop-color:#ffffff;stop-opacity:0;" />
    </linearGradient>
    <linearGradient
   id="linearGradient4728">
      <stop
   id="stop4730"
   offset="0"
   style="stop-color:#eeeeec;stop-opacity:1;" />
      <stop
   id="stop4732"
   offset="1"
   style="stop-color:#ffffff;stop-opacity:1;" />
    </linearGradient>
    <linearGradient
   id="linearGradient4710">
      <stop
   id="stop4712"
   offset="0"
   style="stop-color:#f2f4f1;stop-opacity:1;" />
      <stop
   id="stop4714"
   offset="1"
   style="stop-color:#d3d7cf;stop-opacity:1;" />
    </linearGradient>
    <radialGradient
   cx="24.500004"
   cy="29.500004"
   fx="24.500004"
   fy="29.500004"
   gradientTransform="matrix(2.154119,0,0,2.154119,-76.77594,-33.5971)"
   gradientUnits="userSpaceOnUse"
   id="radialGradient4716"
   inkscape:collect="always"
   r="15.095438"
   xlink:href="#linearGradient4710" />
    <radialGradient
   cx="24.25"
   cy="39.8125"
   fx="24.25"
   fy="39.8125"
   gradientTransform="matrix(1,0,0,0.399281,0,23.91614)"
   gradientUnits="userSpaceOnUse"
   id="radialGradient4726"
   inkscape:collect="always"
   r="17.375"
   xlink:href="#linearGradient5060" />
    <linearGradient
   gradientTransform="matrix(0.993678,0,0,0.993678,-47.94311,1.037934)"
   gradientUnits="userSpaceOnUse"
   id="linearGradient4734"
   inkscape:collect="always"
   x1="24.095442"
   x2="24.095442"
   xlink:href="#linearGradient4728"
   y1="12.595438"
   y2="34.09544" />
    <linearGradient
   gradientUnits="userSpaceOnUse"
   id="linearGradient4756"
   inkscape:collect="always"
   x1="8.1168785"
   x2="9.0674801"
   xlink:href="#linearGradient4750"
   y1="7.9334393"
   y2="6.7843909" />
    <linearGradient
   gradientUnits="userSpaceOnUse"
   id="linearGradient4760"
   inkscape:collect="always"
   x1="38.292995"
   x2="39.4375"
   xlink:href="#linearGradient4750"
   y1="6.7174492"
   y2="8.161993" />
  </defs>
  <g
   inkscape:label="Layer 1"
   inkscape:groupmode="layer"
   id="layer1"
   transform="translate(-22.570255,-122.78525)">
    <g
   id="layer1-3"
   inkscape:label="Layer 1"
   transform="matrix(0.26458333,0,0,0.26458333,22.085666,121.72161)">
      <g
   id="g6707"
   transform="matrix(0.02171308,0,0,0.02452593,43.18739,37.9549)">
        <rect
   height="478.35718"
   id="rect6709"
   style="color:#000000;display:inline;overflow:visible;visibility:visible;opacity:0.402062;fill:url(#linearGradient6715);fill-opacity:1;fill-rule:nonzero;stroke:none;stroke-width:1;stroke-linecap:round;stroke-linejoin:miter;stroke-miterlimit:4;stroke-dasharray:none;stroke-dashoffset:0;stroke-opacity:1;marker:none;marker-start:none;marker-mid:none;marker-end:none"
   width="1339.6335"
   x="-1559.2523"
   y="-150.69685" />
        <path
   d="m -219.61876,-150.68038 c 0,0 0,478.33079 0,478.33079 142.874166,0.90045 345.40022,-107.16966 345.40014,-239.196175 0,-132.026537 -159.436816,-239.134595 -345.40014,-239.134615 z"
   id="path6711"
   sodipodi:nodetypes="cccc"
   style="color:#000000;display:inline;overflow:visible;visibility:visible;opacity:0.402062;fill:url(#radialGradient6717);fill-opacity:1;fill-rule:nonzero;stroke:none;stroke-width:1;stroke-linecap:round;stroke-linejoin:miter;stroke-miterlimit:4;stroke-dasharray:none;stroke-dashoffset:0;stroke-opacity:1;marker:none;marker-start:none;marker-mid:none;marker-end:none" />
        <path
   d="m -1559.2523,-150.68038 c 0,0 0,478.33079 0,478.33079 -142.8742,0.90045 -345.4002,-107.16966 -345.4002,-239.196175 0,-132.026537 159.4368,-239.134595 345.4002,-239.134615 z"
   id="path6713"
   sodipodi:nodetypes="cccc"
   style="color:#000000;display:inline;overflow:visible;visibility:visible;opacity:0.402062;fill:url(#radialGradient6719);fill-opacity:1;fill-rule:nonzero;stroke:none;stroke-width:1;stroke-linecap:round;stroke-linejoin:miter;stroke-miterlimit:4;stroke-dasharray:none;stroke-dashoffset:0;stroke-opacity:1;marker:none;marker-start:none;marker-mid:none;marker-end:none" />
      </g>
      <rect
   height="37.959873"
   id="rect2960"
   inkscape:r_cx="true"
   inkscape:r_cy="true"
   rx="4.5342813"
   ry="4.6512747"
   style="color:#000000;display:block;overflow:visible;visibility:visible;opacity:1;fill:#d3d7cf;fill-opacity:1;fill-rule:nonzero;stroke:#888a85;stroke-width:1;stroke-linecap:butt;stroke-linejoin:miter;stroke-miterlimit:4;stroke-dasharray:none;stroke-dashoffset:0;stroke-opacity:1;marker:none;marker-start:none;marker-mid:none;marker-end:none"
   width="37.00507"
   x="5.5074925"
   y="4.5200701" />
      <rect
   height="29.00633"
   id="rect3835"
   inkscape:r_cx="true"
   inkscape:r_cy="true"
   rx="3.5541852"
   ry="3.5541852"
   style="color:#000000;display:block;overflow:visible;visibility:visible;opacity:1;fill:url(#radialGradient4716);fill-opacity:1;fill-rule:nonzero;stroke:url(#linearGradient4734);stroke-width:1;stroke-linecap:butt;stroke-linejoin:miter;stroke-miterlimit:4;stroke-dasharray:none;stroke-dashoffset:0;stroke-opacity:1;marker:none;marker-start:none;marker-mid:none;marker-end:none"
   transform="scale(-1,1)"
   width="29.00633"
   x="-38.503174"
   y="7.4968405" />
      <rect
   height="36.011204"
   id="rect4740"
   inkscape:r_cx="true"
   inkscape:r_cy="true"
   rx="3.5375013"
   ry="3.5375013"
   style="color:#000000;display:block;overflow:visible;visibility:visible;opacity:0.488889;fill:none;fill-opacity:1;fill-rule:nonzero;stroke:#ffffff;stroke-width:1;stroke-linecap:butt;stroke-linejoin:miter;stroke-miterlimit:4;stroke-dasharray:none;stroke-dashoffset:0;stroke-opacity:1;marker:none;marker-start:none;marker-mid:none;marker-end:none"
   width="35.105415"
   x="6.4573174"
   y="5.4944024" />
      <path
   d="M 5.9375,38.5 C 6,39.625 7.25,41.4375 8.75,41.8125 l 2.1875,-5.5 L 10,35.625 Z"
   id="path4742"
   inkscape:r_cx="true"
   inkscape:r_cy="true"
   sodipodi:nodetypes="ccccc"
   style="color:#000000;display:block;overflow:visible;visibility:visible;opacity:0.488889;fill:#ffffff;fill-opacity:1;fill-rule:nonzero;stroke:none;stroke-width:1;stroke-linecap:butt;stroke-linejoin:miter;stroke-miterlimit:4;stroke-dasharray:none;stroke-dashoffset:0;stroke-opacity:1;marker:none;marker-start:none;marker-mid:none;marker-end:none" />
      <path
   d="M 42.0625,38.5 C 42,39.625 40.75,41.4375 39.25,41.8125 l -2.1875,-5.5 L 38,35.625 Z"
   id="path4744"
   inkscape:r_cx="true"
   inkscape:r_cy="true"
   sodipodi:nodetypes="ccccc"
   style="color:#000000;display:block;overflow:visible;visibility:visible;opacity:0.488889;fill:#ffffff;fill-opacity:1;fill-rule:nonzero;stroke:none;stroke-width:1;stroke-linecap:butt;stroke-linejoin:miter;stroke-miterlimit:4;stroke-dasharray:none;stroke-dashoffset:0;stroke-opacity:1;marker:none;marker-start:none;marker-mid:none;marker-end:none" />
      <path
   d="M 41.5,7.125 C 41.0625,6.5625 40.3125,5.5 39.3125,5.1875 L 37.375,7.75 l 0.9375,1 z"
   id="path4746"
   inkscape:r_cx="true"
   inkscape:r_cy="true"
   sodipodi:nodetypes="ccccc"
   style="color:#000000;display:block;overflow:visible;visibility:visible;opacity:1;fill:url(#linearGradient4760);fill-opacity:1;fill-rule:nonzero;stroke:none;stroke-width:1;stroke-linecap:butt;stroke-linejoin:miter;stroke-miterlimit:4;stroke-dasharray:none;stroke-dashoffset:0;stroke-opacity:1;marker:none;marker-start:none;marker-mid:none;marker-end:none" />
      <path
   d="M 6.4375,7.125 C 6.875,6.5625 7.5625,5.5625 8.5625,5.25 l 1.875,2.6875 -0.6875,1 z"
   id="path4748"
   inkscape:r_cx="true"
   inkscape:r_cy="true"
   sodipodi:nodetypes="ccccc"
   style="color:#000000;display:block;overflow:visible;visibility:visible;opacity:1;fill:url(#linearGradient4756);fill-opacity:1;fill-rule:nonzero;stroke:none;stroke-width:1;stroke-linecap:butt;stroke-linejoin:miter;stroke-miterlimit:4;stroke-dasharray:none;stroke-dashoffset:0;stroke-opacity:1;marker:none;marker-start:none;marker-mid:none;marker-end:none" />
      <text
   xml:space="preserve"
   style="font-style:normal;font-variant:normal;font-weight:bold;font-stretch:normal;font-size:21.3333px;font-family:'Open Sans';-inkscape-font-specification:'Open Sans Bold';display:none;fill:#000000"
   x="22.549721"
   y="29.951237"
   id="text374"><tspan
     sodipodi:role="line"
     id="tspan372"
     x="22.549721"
     y="29.951237"
     style="font-style:normal;font-variant:normal;font-weight:bold;font-stretch:normal;font-size:21.3333px;font-family:'Open Sans';-inkscape-font-specification:'Open Sans Bold'">G agan[OS]</tspan></text>
    <g
   aria-label="G agan[OS]"
   id="text310"
   style="font-weight:bold;font-size:21.3333px;font-family:'Open Sans';-inkscape-font-specification:'Open Sans Bold';display:inline"><path
     d="m 30.247625,21.399167 h 6.041657 v 7.895821 q -1.197914,0.395832 -2.489579,0.635415 -1.291665,0.229167 -2.927079,0.229167 -2.270829,0 -3.85416,-0.895832 -1.583331,-0.895832 -2.406246,-2.645829 -0.822916,-1.749998 -0.822916,-4.302077 0,-2.395829 0.916665,-4.145827 0.927082,-1.749997 2.697913,-2.708329 1.781247,-0.958332 4.343743,-0.958332 1.208331,0 2.385413,0.260417 1.177081,0.260416 2.135413,0.677082 l -1.072915,2.583329 Q 34.497619,17.670006 33.601787,17.430423 32.705955,17.19084 31.72679,17.19084 q -1.406248,0 -2.447913,0.645833 -1.031249,0.645832 -1.604164,1.812497 -0.562499,1.156248 -0.562499,2.729162 0,1.489581 0.406249,2.645829 0.406249,1.145832 1.281248,1.802081 0.874999,0.645832 2.281246,0.645832 0.687499,0 1.156248,-0.0625 0.479166,-0.07292 0.895832,-0.145833 v -3.177078 h -2.885412 z"
     id="path312" /><path
     d="m 49.97676,18.065839 q 2.343747,0 3.593745,1.020832 1.249998,1.020831 1.249998,3.104161 v 7.760405 h -2.218747 l -0.614582,-1.583331 h -0.08333 q -0.5,0.624999 -1.020832,1.020832 -0.520833,0.395832 -1.197915,0.583332 -0.677082,0.1875 -1.645831,0.1875 -1.031248,0 -1.854163,-0.395833 -0.812499,-0.395833 -1.281248,-1.208331 -0.46875,-0.822916 -0.46875,-2.08333 0,-1.854164 1.302082,-2.729163 1.302081,-0.885415 3.906243,-0.979165 l 2.020831,-0.0625 v -0.510416 q 0,-0.916665 -0.479166,-1.343748 -0.479166,-0.427082 -1.333332,-0.427082 -0.843748,0 -1.656247,0.239583 -0.812499,0.239583 -1.624997,0.604165 l -1.052082,-2.145829 q 0.927082,-0.489583 2.072913,-0.770833 1.156249,-0.281249 2.385413,-0.281249 z m 1.687498,6.489573 -1.229165,0.04167 q -1.541664,0.04167 -2.14583,0.552082 -0.593749,0.510416 -0.593749,1.343748 0,0.729165 0.427082,1.041665 0.427083,0.302083 1.114582,0.302083 1.020832,0 1.718747,-0.604166 0.708333,-0.604166 0.708333,-1.718747 z"
     id="path314" /><path
     d="m 61.497576,35.076229 q -2.437496,0 -3.729161,-0.854166 -1.281248,-0.843748 -1.281248,-2.374996 0,-1.052082 0.656249,-1.760414 0.656249,-0.708332 1.927081,-1.010415 -0.489583,-0.208333 -0.854166,-0.677082 -0.364583,-0.479166 -0.364583,-1.010415 0,-0.666666 0.385416,-1.104165 0.385417,-0.447916 1.114582,-0.874999 -0.916665,-0.395832 -1.458331,-1.270831 -0.531249,-0.874999 -0.531249,-2.062497 0,-1.270831 0.552082,-2.156246 0.562499,-0.895832 1.624998,-1.364582 1.072915,-0.468749 2.604162,-0.468749 0.322916,0 0.749999,0.04167 0.427083,0.04167 0.781249,0.09375 0.364583,0.05208 0.489582,0.08333 h 4.062494 v 1.614581 l -1.822914,0.468749 q 0.25,0.385416 0.375,0.822915 0.124999,0.4375 0.124999,0.927082 0,1.874997 -1.312497,2.927079 -1.302082,1.041665 -3.624995,1.041665 -0.552082,-0.03125 -1.041665,-0.08333 -0.239583,0.187499 -0.364583,0.395832 -0.124999,0.208333 -0.124999,0.4375 0,0.229166 0.187499,0.385416 0.197917,0.145833 0.583333,0.229166 0.395833,0.07292 0.979165,0.07292 h 1.979163 q 1.916664,0 2.916663,0.822915 1.010415,0.822915 1.010415,2.416663 0,2.041663 -1.708331,3.166661 -1.697914,1.124999 -4.885409,1.124999 z m 0.135416,-2.072914 q 1.135415,0 1.947914,-0.218749 0.822915,-0.208333 1.260415,-0.604166 0.437499,-0.385416 0.437499,-0.927082 0,-0.437499 -0.260416,-0.697916 -0.25,-0.249999 -0.770832,-0.354166 -0.510416,-0.104166 -1.312498,-0.104166 h -1.645831 q -0.583332,0 -1.052082,0.1875 -0.458332,0.187499 -0.729165,0.520832 -0.270833,0.343749 -0.270833,0.791665 0,0.656249 0.624999,1.031249 0.635416,0.374999 1.77083,0.374999 z m 0.510416,-8.833319 q 0.895832,0 1.312498,-0.552083 0.416666,-0.552082 0.416666,-1.499997 0,-1.052082 -0.437499,-1.572914 -0.427083,-0.53125 -1.291665,-0.53125 -0.874998,0 -1.312498,0.53125 -0.437499,0.520832 -0.437499,1.572914 0,0.947915 0.427083,1.499997 0.437499,0.552083 1.322914,0.552083 z"
     id="path316" /><path
     d="m 74.91422,18.065839 q 2.343746,0 3.593745,1.020832 1.249998,1.020831 1.249998,3.104161 v 7.760405 H 77.539216 L 76.924634,28.367906 H 76.8413 q -0.499999,0.624999 -1.020831,1.020832 -0.520833,0.395832 -1.197915,0.583332 -0.677082,0.1875 -1.645831,0.1875 -1.031248,0 -1.854163,-0.395833 -0.812499,-0.395833 -1.281248,-1.208331 -0.46875,-0.822916 -0.46875,-2.08333 0,-1.854164 1.302082,-2.729163 1.302081,-0.885415 3.906243,-0.979165 l 2.020831,-0.0625 v -0.510416 q 0,-0.916665 -0.479166,-1.343748 -0.479166,-0.427082 -1.333332,-0.427082 -0.843748,0 -1.656247,0.239583 -0.812499,0.239583 -1.624997,0.604165 l -1.052082,-2.145829 q 0.927082,-0.489583 2.072913,-0.770833 1.156248,-0.281249 2.385413,-0.281249 z m 1.687498,6.489573 -1.229165,0.04167 q -1.541664,0.04167 -2.14583,0.552082 -0.593749,0.510416 -0.593749,1.343748 0,0.729165 0.427082,1.041665 0.427083,0.302083 1.114582,0.302083 1.020832,0 1.718747,-0.604166 0.708333,-0.604166 0.708333,-1.718747 z"
     id="path318" /><path
     d="m 89.643362,18.086672 q 1.864581,0 2.999996,1.020832 1.135414,1.010415 1.135414,3.249995 v 7.593738 h -3.177078 v -6.802073 q 0,-1.249998 -0.458332,-1.885414 -0.447916,-0.635415 -1.416665,-0.635415 -1.458331,0 -1.98958,0.989582 -0.531249,0.989581 -0.531249,2.854162 v 5.479158 H 83.028789 V 18.305422 h 2.42708 l 0.427083,1.489581 h 0.177083 q 0.374999,-0.604166 0.927082,-0.979165 0.562499,-0.375 1.239581,-0.552083 0.687499,-0.177083 1.416664,-0.177083 z"
     id="path320" /><path
     d="M 101.91417,33.326231 H 96.872516 V 14.722094 h 5.041654 v 2.197913 h -2.333325 v 14.208311 h 2.333325 z"
     id="path322" /><path
     d="m 118.18499,22.315832 q 0,1.760414 -0.4375,3.208328 -0.4375,1.437498 -1.33334,2.479163 -0.88541,1.041665 -2.24999,1.604164 -1.36458,0.552083 -3.22916,0.552083 -1.86458,0 -3.22916,-0.552083 -1.36459,-0.562499 -2.26042,-1.604164 -0.88541,-1.041665 -1.32291,-2.489579 -0.4375,-1.447915 -0.4375,-3.218745 0,-2.36458 0.77083,-4.114577 0.78125,-1.760414 2.39583,-2.729162 1.61458,-0.968749 4.10416,-0.968749 2.47916,0 4.07291,0.968749 1.60416,0.968748 2.375,2.729162 0.78125,1.760414 0.78125,4.13541 z m -11.11457,0 q 0,1.593748 0.39583,2.749996 0.40625,1.145831 1.26042,1.77083 0.85416,0.614583 2.20833,0.614583 1.37499,0 2.22916,-0.614583 0.85417,-0.624999 1.23958,-1.77083 0.39583,-1.156248 0.39583,-2.749996 0,-2.395829 -0.89583,-3.770827 -0.89583,-1.374998 -2.94791,-1.374998 -1.36458,0 -2.22916,0.624999 -0.85417,0.614582 -1.26042,1.77083 -0.39583,1.145832 -0.39583,2.749996 z"
     id="path324" /><path
     d="m 130.3308,25.722077 q 0,1.354164 -0.65625,2.354163 -0.65625,0.999998 -1.91666,1.541664 -1.25,0.541666 -3.04166,0.541666 -0.79167,0 -1.55208,-0.104167 -0.75,-0.104166 -1.44792,-0.302083 -0.6875,-0.208333 -1.3125,-0.510415 v -2.999996 q 1.08333,0.479166 2.25,0.864582 1.16666,0.385416 2.3125,0.385416 0.79166,0 1.27083,-0.208333 0.48958,-0.208333 0.70833,-0.572915 0.21875,-0.364583 0.21875,-0.833333 0,-0.572915 -0.38542,-0.979165 -0.38541,-0.406249 -1.0625,-0.760415 -0.66666,-0.354166 -1.51041,-0.760416 -0.53125,-0.249999 -1.15625,-0.604165 -0.625,-0.364583 -1.1875,-0.885416 -0.56249,-0.520832 -0.92708,-1.260414 -0.35416,-0.749999 -0.35416,-1.791664 0,-1.364581 0.625,-2.33333 0.62499,-0.968748 1.78124,-1.479164 1.16667,-0.520833 2.75,-0.520833 1.1875,0 2.26041,0.28125 1.08333,0.270833 2.26041,0.791665 l -1.04166,2.510413 q -1.05208,-0.427083 -1.88541,-0.656249 -0.83334,-0.239583 -1.69792,-0.239583 -0.60416,0 -1.03125,0.197917 -0.42708,0.187499 -0.64583,0.541665 -0.21875,0.34375 -0.21875,0.802082 0,0.541666 0.3125,0.916666 0.32292,0.364582 0.95833,0.708332 0.64584,0.343749 1.60417,0.802082 1.16666,0.552082 1.98958,1.156248 0.83333,0.593749 1.28124,1.406248 0.44792,0.802082 0.44792,1.999997 z"
     id="path326" /><path
     d="m 131.70579,31.128318 h 2.32292 V 16.920007 h -2.32292 v -2.197913 h 5.04166 v 18.604137 h -5.04166 z"
     id="path328" /></g></g>
  </g>
</svg>
