<?xml version="1.0" encoding="UTF-8" standalone="no"?>
<!--part of the rodentia icon theme by sixsixfive released under CC0 (https://creativecommons.org/publicdomain/zero/1.0/) on openclipart-->
<svg xmlns="http://www.w3.org/2000/svg" xmlns:xlink="http://www.w3.org/1999/xlink" viewBox="0 0 48 48">
 <defs id="0">
  <linearGradient id="7">
   <stop id="F" stop-color="#fff"/>
   <stop id="G" offset="1" stop-color="#fff" stop-opacity="0"/>
  </linearGradient>
  <linearGradient id="8">
   <stop id="H" stop-color="#fff" stop-opacity="0.5"/>
   <stop id="I" offset="1" stop-color="#fff" stop-opacity="0"/>
  </linearGradient>
  <linearGradient id="9">
   <stop id="J" stop-color="#2e3436"/>
   <stop id="K" offset="1" stop-color="#2e3436" stop-opacity="0"/>
  </linearGradient>
  <linearGradient id="A">
   <stop id="L" stop-color="#eee"/>
   <stop id="M" offset="1" stop-color="#dcdcdc"/>
  </linearGradient>
  <radialGradient cx="60.05" cy="51.39" r="15.03" id="B" xlink:href="#A" gradientUnits="userSpaceOnUse" gradientTransform="matrix(-1.404511,1.1888571,-1,-1.1813958,199.73811,11.750541)"/>
  <radialGradient cx="25.02" cy="44.3" r="16.727" id="C" xlink:href="#9" gradientUnits="userSpaceOnUse" gradientTransform="matrix(1,0,0,0.11504424,0,39.202918)"/>
  <linearGradient y1="5.265" x2="0" y2="42.603" id="D" xlink:href="#8" gradientUnits="userSpaceOnUse"/>
  <linearGradient x1="-4.455" y1="-33.449" x2="31.07" y2="39.677" id="E" xlink:href="#7" gradientUnits="userSpaceOnUse"/>
 </defs>
 <path d="m 41.743937,44.299297 a 16.727181,1.9243659 0 1 1 -33.4543614,0 16.727181,1.9243659 0 1 1 33.4543614,0 z" transform="matrix(1,0,0,1.4615385,-1.0167561,-21.157663)" id="1" opacity="0.8" fill="url(#C)"/>
 <path d="M 44,24 A 20,19.997948 0 1 1 4.0000001,24 20,19.997948 0 1 1 44,24 z" id="2" fill="#ce5c00"/>
 <path d="M 22.75,5.375 C 8.615336,5.6267023 0.00192621,23.952757 8.9375,35.0625 L 8.90625,35.09375 C 17.018382,47.079005 37.344698,44.11383 41.5625,30.25 l 0.03125,0 c 0.0076,-0.01959 -0.0075,-0.0429 0,-0.0625 C 46.258402,17.976792 35.858956,4.2337465 22.8125,5.375 c -0.02148,0.00188 -0.041,-0.00196 -0.0625,0 z" id="3" fill="#f57900"/>
 <path d="m 21.555414,35.204801 c -2.163739,0.7038 -1.55369,2.694664 0.837253,2.403812 18.44222,-2.243449 12.874579,-21.399419 1.778879,-21.290647 l 0,-5.955386 -10.57534,9.265592 10.57534,9.717197 c 0,0 0,-6.141486 0,-6.141486 8.933077,-0.372216 9.988301,11.499412 -2.616132,12.000918 z" id="4" fill="#eeeeec" display="block" stroke="#ce5c00" stroke-linejoin="round" color="#000"/>
 <path d="m 25.15625,5.78125 c -0.763464,-0.037384 -1.558056,-0.00768 -2.34375,0.0625 -0.01047,9.351e-4 -0.02078,-9.548e-4 -0.03125,0 C 9.0161224,6.0630086 0.55495532,24.017662 9.3125,34.8125 c 7.891282,11.658961 27.769934,8.786369 31.84375,-4.71875 0.0029,-0.0095 -0.0029,-0.02172 0,-0.03125 4.28647,-11.160212 -4.405284,-23.7135002 -16,-24.28125 z" id="5" fill="none" stroke="url(#D)"/>
 <path d="M 24.03125,5.3125 C 23.629097,5.31959 23.220202,5.339336 22.8125,5.375 22.79102,5.37688 22.7715,5.37304 22.75,5.375 9.3832209,5.6130282 0.97570212,22.010419 7.65625,33.1875 15.951602,23.656353 28.103471,17.700903 40.84375,16.0625 37.811665,9.8109828 31.430863,5.1819654 24.03125,5.3125 z" id="6" opacity="0.6" fill="url(#E)"/>
</svg>