<?xml version="1.0" encoding="UTF-8" standalone="no"?>
<!-- Created with Inkscape (http://www.inkscape.org/) -->

<svg
   id="svg2"
   sodipodi:docname="crash.svg"
   inkscape:export-filename="/home/the_structorr/Grafika/svg/moje/monitor2.png"
   viewBox="0 0 375.76 383.69"
   sodipodi:version="0.32"
   inkscape:export-xdpi="72.000000"
   version="1.0"
   inkscape:output_extension="org.inkscape.output.svg.inkscape"
   inkscape:export-ydpi="72.000000"
   inkscape:version="1.2.2 (732a01da63, 2022-12-09)"
   xmlns:inkscape="http://www.inkscape.org/namespaces/inkscape"
   xmlns:sodipodi="http://sodipodi.sourceforge.net/DTD/sodipodi-0.dtd"
   xmlns:xlink="http://www.w3.org/1999/xlink"
   xmlns="http://www.w3.org/2000/svg"
   xmlns:svg="http://www.w3.org/2000/svg"
   xmlns:rdf="http://www.w3.org/1999/02/22-rdf-syntax-ns#"
   xmlns:cc="http://creativecommons.org/ns#"
   xmlns:dc="http://purl.org/dc/elements/1.1/">
  <defs
     id="defs3">
    <linearGradient
       id="linearGradient2778"
       inkscape:collect="always">
      <stop
         id="stop2780"
         style="stop-color:#000000"
         offset="0" />
      <stop
         id="stop2782"
         style="stop-color:#000000;stop-opacity:0"
         offset="1" />
    </linearGradient>
    <linearGradient
       id="linearGradient2645">
      <stop
         id="stop2647"
         style="stop-color:#848484"
         offset="0" />
      <stop
         id="stop2649"
         style="stop-color:#fcfcfc"
         offset="1" />
    </linearGradient>
    <linearGradient
       id="linearGradient2517">
      <stop
         id="stop2519"
         style="stop-color:#000000;stop-opacity:0"
         offset="0" />
      <stop
         id="stop2525"
         style="stop-color:#000000;stop-opacity:0"
         offset=".5" />
      <stop
         id="stop2521"
         style="stop-color:#000000"
         offset="1" />
    </linearGradient>
    <linearGradient
       id="linearGradient2353"
       inkscape:collect="always">
      <stop
         id="stop2355"
         style="stop-color:#ffffff"
         offset="0" />
      <stop
         id="stop2357"
         style="stop-color:#ffffff;stop-opacity:0"
         offset="1" />
    </linearGradient>
    <linearGradient
       id="linearGradient2345">
      <stop
         id="stop2347"
         style="stop-color:#b8b8b8"
         offset="0" />
      <stop
         id="stop2349"
         style="stop-color:#f1f1f1"
         offset="1" />
    </linearGradient>
    <radialGradient
       id="radialGradient1808"
       xlink:href="#linearGradient2778"
       gradientUnits="userSpaceOnUse"
       cy="424"
       cx="262"
       gradientTransform="matrix(1 0 0 .25203 0 317.14)"
       r="246"
       inkscape:collect="always" />
    <linearGradient
       id="linearGradient1926"
       y2="182.07"
       xlink:href="#linearGradient2345"
       spreadMethod="reflect"
       gradientUnits="userSpaceOnUse"
       y1="182.07"
       gradientTransform="matrix(.91939 0 0 .97193 12.049 44.869)"
       x2="274.81"
       x1="76.308"
       inkscape:collect="always" />
    <radialGradient
       id="radialGradient1928"
       gradientUnits="userSpaceOnUse"
       cy="414.29"
       cx="372.46"
       gradientTransform="matrix(2.7786 -.37979 .10022 .73326 -705.47 198.34)"
       r="166.14"
       inkscape:collect="always">
      <stop
         id="stop2760"
         style="stop-color:#3b8eff;stop-opacity:1;"
         offset="0" />
      <stop
         id="stop2762"
         style="stop-color:#0000e3;stop-opacity:1;"
         offset="1" />
    </radialGradient>
    <radialGradient
       id="radialGradient1930"
       xlink:href="#linearGradient2345"
       spreadMethod="reflect"
       gradientUnits="userSpaceOnUse"
       cy="213.94"
       cx="264.7"
       gradientTransform="matrix(.49433 0 0 .37565 133.85 133.57)"
       r="166.14"
       inkscape:collect="always" />
    <radialGradient
       id="radialGradient1932"
       xlink:href="#linearGradient2645"
       spreadMethod="reflect"
       gradientUnits="userSpaceOnUse"
       cy="333.87"
       cx="415.1"
       gradientTransform="matrix(0 -.66003 .61881 0 187.65 619.23)"
       r="5.95"
       inkscape:collect="always" />
    <linearGradient
       id="linearGradient1934"
       y2="354.88"
       xlink:href="#linearGradient2645"
       gradientUnits="userSpaceOnUse"
       y1="347.95"
       x2="400.11"
       x1="396.04"
       inkscape:collect="always" />
    <linearGradient
       id="linearGradient1936"
       y2="352.56"
       xlink:href="#linearGradient2353"
       gradientUnits="userSpaceOnUse"
       y1="347"
       x2="399.5"
       x1="399.5"
       inkscape:collect="always" />
    <radialGradient
       id="radialGradient1956"
       xlink:href="#linearGradient2353"
       gradientUnits="userSpaceOnUse"
       cy="77.963"
       cx="219.31"
       gradientTransform="matrix(2.6655 0 0 1.3098 -440.87 -52.773)"
       r="164.14"
       inkscape:collect="always" />
    <radialGradient
       id="radialGradient2147"
       fy="771.21"
       xlink:href="#linearGradient2345"
       spreadMethod="reflect"
       gradientUnits="userSpaceOnUse"
       cy="771.2"
       cx="291.24"
       gradientTransform="matrix(.39013 .012187 -.0096922 .72646 275.65 166.7)"
       r="315.71"
       inkscape:collect="always" />
    <radialGradient
       id="radialGradient2149"
       xlink:href="#linearGradient2517"
       spreadMethod="reflect"
       gradientUnits="userSpaceOnUse"
       cy="884.12"
       cx="391.97"
       gradientTransform="matrix(-.0014989 .93885 -.91436 .044263 1203.7 299.89)"
       r="315.71"
       inkscape:collect="always" />
    <radialGradient
       id="radialGradient2151"
       fy="403.91"
       xlink:href="#linearGradient2345"
       spreadMethod="reflect"
       gradientUnits="userSpaceOnUse"
       cy="543.09"
       cx="389.17"
       gradientTransform="matrix(.74276 -.0000012347 6.103e-7 .36714 101.28 437.46)"
       r="315.71"
       inkscape:collect="always" />
    <linearGradient
       id="linearGradient2153"
       y2="619.78"
       xlink:href="#linearGradient2353"
       spreadMethod="reflect"
       gradientUnits="userSpaceOnUse"
       y1="472.74"
       x2="388.32"
       x1="388.32"
       inkscape:collect="always" />
    <radialGradient
       id="radialGradient2155"
       fy="506.3"
       gradientUnits="userSpaceOnUse"
       cy="557.6"
       cx="384.3"
       gradientTransform="matrix(.25576 0 0 .40958 157.72 159.04)"
       r="102.42"
       inkscape:collect="always">
      <stop
         id="stop2447"
         style="stop-color:#6c6c6c"
         offset="0" />
      <stop
         id="stop2449"
         style="stop-color:#6c6c6c;stop-opacity:0"
         offset="1" />
    </radialGradient>
    <linearGradient
       id="linearGradient2159"
       y2="412.14"
       xlink:href="#linearGradient2345"
       spreadMethod="reflect"
       gradientUnits="userSpaceOnUse"
       y1="412.14"
       gradientTransform="matrix(.24090 0 0 .31488 163.43 211.84)"
       x2="398.86"
       x1="281.88"
       inkscape:collect="always" />
    <linearGradient
       id="linearGradient2161"
       y2="412.14"
       spreadMethod="reflect"
       gradientUnits="userSpaceOnUse"
       y1="412.14"
       gradientTransform="matrix(.24090 0 0 .31488 163.43 211.84)"
       x2="350.15"
       x1="261.88"
       inkscape:collect="always">
      <stop
         id="stop2433"
         style="stop-color:#c6c6c6"
         offset="0" />
      <stop
         id="stop2439"
         style="stop-color:#696969"
         offset=".13501" />
      <stop
         id="stop2441"
         style="stop-color:#f9f9f9"
         offset=".64724" />
      <stop
         id="stop2435"
         style="stop-color:#bcbcbc"
         offset="1" />
    </linearGradient>
    <radialGradient
       id="radialGradient2163"
       fy="399.28"
       xlink:href="#linearGradient2517"
       gradientUnits="userSpaceOnUse"
       cy="405.73"
       cx="265.17"
       gradientTransform="matrix(.81940 0 0 3.6749 38.724 -1104.9)"
       r="37.272"
       inkscape:collect="always" />
    <radialGradient
       id="radialGradient2165"
       fy="391.53"
       xlink:href="#linearGradient2517"
       gradientUnits="userSpaceOnUse"
       cy="410.06"
       cx="264.2"
       gradientTransform="matrix(1.4967 -4.5858e-7 0 1.7404 -139.42 -314.77)"
       r="37.272"
       inkscape:collect="always" />
    <linearGradient
       id="linearGradient2167"
       y2="457.44"
       xlink:href="#linearGradient2353"
       spreadMethod="reflect"
       gradientUnits="userSpaceOnUse"
       y1="499.09"
       x2="350.59"
       x1="294.35"
       inkscape:collect="always" />
  </defs>
  <sodipodi:namedview
     id="base"
     bordercolor="#666666"
     inkscape:pageshadow="2"
     inkscape:guide-bbox="true"
     pagecolor="#ffffff"
     inkscape:zoom="1"
     inkscape:window-width="2560"
     showgrid="false"
     borderopacity="1.0"
     inkscape:current-layer="layer1"
     inkscape:cx="143.5"
     inkscape:cy="312"
     showguides="true"
     inkscape:window-y="1072"
     inkscape:window-x="2040"
     inkscape:window-height="1387"
     inkscape:pageopacity="0.0"
     inkscape:document-units="px"
     inkscape:showpageshadow="2"
     inkscape:pagecheckerboard="0"
     inkscape:deskcolor="#d1d1d1"
     inkscape:window-maximized="1" />
  <g
     id="layer1"
     inkscape:label="Layer 1"
     inkscape:groupmode="layer"
     transform="translate(-68.118 -66.157)">
    <g
       id="g2218">
      <path
         id="path2868"
         style="opacity:0.3;fill-rule:evenodd;fill:url(#radialGradient1808)"
         transform="matrix(.60264 0 0 .88607 98.107 12.101)"
         d="m508 424a246 62 0 1 1 -492 0 246 62 0 1 1 492 0z"
         sodipodi:type="arc"
         sodipodi:ry="62"
         sodipodi:rx="246"
         sodipodi:cy="424"
         sodipodi:cx="262" />
      <path
         id="path2776"
         style="opacity:0.4;fill-rule:evenodd;fill:url(#radialGradient1808)"
         transform="matrix(.47138 0 0 .79045 132.5 65.685)"
         d="m508 424a246 62 0 1 1 -492 0 246 62 0 1 1 492 0z"
         sodipodi:type="arc"
         sodipodi:ry="62"
         sodipodi:rx="246"
         sodipodi:cy="424"
         sodipodi:cx="262" />
      <path
         id="path2872"
         style="opacity:0.3;fill-rule:evenodd;fill:url(#radialGradient1808)"
         transform="matrix(.76375 0 0 .73762 55.898 78.598)"
         d="m508 424a246 62 0 1 1 -492 0 246 62 0 1 1 492 0z"
         sodipodi:type="arc"
         sodipodi:ry="62"
         sodipodi:rx="246"
         sodipodi:cy="424"
         sodipodi:cx="262" />
      <g
         id="g2184">
        <g
           id="g2169">
          <g
             id="g1625"
             transform="matrix(.98434 0 0 1.0714 4.0085 -36.346)">
            <path
               id="path2453"
               style="fill-rule:evenodd;fill:url(#radialGradient2147)"
               transform="matrix(.33356 0 .0044502 .215 125.4 284.84)"
               d="m700 543.79a315.71 151.43 0 1 1 -631.43 0 315.71 151.43 0 1 1 631.43 0z"
               sodipodi:type="arc"
               sodipodi:ry="151.42857"
               sodipodi:rx="315.71429"
               sodipodi:cy="543.79077"
               sodipodi:cx="384.28571" />
            <path
               id="path2543"
               style="opacity:0.49545;fill-rule:evenodd;fill:url(#radialGradient2149)"
               transform="matrix(.33356 0 .0044502 .215 125.4 284.84)"
               d="m700 543.79a315.71 151.43 0 1 1 -631.43 0 315.71 151.43 0 1 1 631.43 0z"
               sodipodi:type="arc"
               sodipodi:ry="151.42857"
               sodipodi:rx="315.71429"
               sodipodi:cy="543.79077"
               sodipodi:cx="384.28571" />
            <path
               id="path1288"
               style="fill-rule:evenodd;fill:url(#radialGradient2151)"
               transform="matrix(.32523 0 0 .18828 131.02 296.14)"
               d="m700 543.79a315.71 151.43 0 1 1 -631.43 0 315.71 151.43 0 1 1 631.43 0z"
               sodipodi:type="arc"
               sodipodi:ry="151.42857"
               sodipodi:rx="315.71429"
               sodipodi:cy="543.79077"
               sodipodi:cx="384.28571" />
            <path
               id="path2343"
               style="fill-rule:evenodd;fill:url(#linearGradient2153)"
               sodipodi:type="inkscape:offset"
               d="m147.38 456.5c-7.02 4.02-13.71 8.17-19.72 12.5-31.551 22.71-48.129 48.42-48.129 74.78 0 35.61 31.099 70.72 86.279 97.19 55.19 26.47 132.76 43.28 218.47 43.28 85.72 0 163.28-16.81 218.47-43.28s86.28-61.58 86.28-97.19c0-26.35-16.57-52.04-48.09-74.75-6.04-4.34-12.74-8.49-19.78-12.53 9.86 13.01 15.68 27.5 15.68 43 0 18.54-8.33 35.88-21.9 50.62-13.58 14.75-32.46 27.33-55.28 37.82-45.65 20.97-107.33 33.53-175.38 33.53-68.04 0-129.73-12.56-175.37-33.53-22.83-10.49-41.71-23.07-55.29-37.82-13.57-14.74-21.9-32.08-21.9-50.62 0-15.5 5.79-29.99 15.66-43z"
               inkscape:original="M 257.18750 405.25000 C 146.20069 428.73051 68.562500 481.89392 68.562500 543.78125 C 68.562500 627.36982 210.00696 695.21873 384.28125 695.21875 C 558.55554 695.21875 700.00000 627.36982 700.00000 543.78125 C 700.00000 481.91769 622.41850 428.77560 511.50000 405.28125 C 580.06546 424.87108 625.87500 459.70370 625.87500 499.50000 C 625.87500 560.76298 517.64517 610.50000 384.28125 610.50000 C 250.91733 610.49999 142.68750 560.76298 142.68750 499.50000 C 142.68750 459.68321 188.56316 424.83412 257.18750 405.25000 z "
               transform="matrix(.32523 0 0 .18828 131.02 296.14)"
               inkscape:radius="-10.959099" />
          </g>
          <g
             id="g2457"
             transform="matrix(1.0395 0 0 1 -10.117 4)">
            <path
               id="path2443"
               sodipodi:nodetypes="cccccccc"
               style="opacity:0.83182;fill-rule:evenodd;fill:url(#radialGradient2155)"
               d="m241.28 426.93l-9.63-59.48c-0.19-0.85-0.32-1.7-0.32-2.59 0-9.36 11.05-16.95 24.67-16.95s24.68 7.59 24.68 16.95c0 0.62-0.06 1.23-0.15 1.83l-9.64 60.24h-29.61z" />
            <path
               id="path1658"
               style="opacity:0.2;fill-rule:evenodd;fill:url(#radialGradient1808)"
               transform="matrix(.26451 0 0 .21436 186.7 279.18)"
               d="m508 424a246 62 0 1 1 -492 0 246 62 0 1 1 492 0z"
               sodipodi:type="arc"
               sodipodi:ry="62"
               sodipodi:rx="246"
               sodipodi:cy="424"
               sodipodi:cx="262" />
            <path
               id="path2051"
               sodipodi:nodetypes="cccccccc"
               style="fill-rule:evenodd;fill:url(#linearGradient2159)"
               d="m241.28 302.11l-9.63 59.48c-0.19 0.84-0.32 1.7-0.32 2.59 0 9.35 11.05 16.95 24.67 16.95s24.68-7.6 24.68-16.95c0-0.62-0.06-1.23-0.15-1.83l-9.64-60.24h-29.61z" />
            <path
               id="path2429"
               sodipodi:nodetypes="cccccccc"
               style="opacity:0.32727;fill-rule:evenodd;fill:url(#linearGradient2161)"
               d="m241.28 302.11l-9.63 59.48c-0.19 0.84-0.32 1.7-0.32 2.59 0 9.35 11.05 16.95 24.67 16.95s24.68-7.6 24.68-16.95c0-0.62-0.06-1.23-0.15-1.83l-9.64-60.24h-29.61z" />
            <path
               id="path2515"
               sodipodi:nodetypes="cccccccc"
               style="opacity:0.5;fill-rule:evenodd;fill:url(#radialGradient2163)"
               d="m241.28 302.11l-9.63 59.48c-0.19 0.84-0.32 1.7-0.32 2.59 0 9.35 11.05 16.95 24.67 16.95s24.68-7.6 24.68-16.95c0-0.62-0.06-1.23-0.15-1.83l-9.64-60.24h-29.61z" />
            <path
               id="path2551"
               sodipodi:nodetypes="cccccccc"
               style="opacity:0.3;fill-rule:evenodd;fill:url(#radialGradient2165)"
               d="m241.28 302.11l-9.63 59.48c-0.19 0.84-0.32 1.7-0.32 2.59 0 9.35 11.05 16.95 24.67 16.95s24.68-7.6 24.68-16.95c0-0.62-0.06-1.23-0.15-1.83l-9.64-60.24h-29.61z" />
            <path
               id="path2425"
               style="fill-rule:evenodd;fill:url(#linearGradient2167)"
               sodipodi:type="inkscape:offset"
               d="m299.44 434.47l-9.03 42.62c-0.05 0.18-0.1 0.36-0.16 0.53-0.66 2.25-1 4.28-1 6.16 0 11.07 8.89 22.51 26.06 31.53 17.17 9.03 41.75 14.94 68.97 14.94 2.63 0 5.18-0.14 7.75-0.25-44.43-15.75-79.13-51.2-92.59-95.53z"
               inkscape:original="M 300.75000 392.56250 L 283.18750 475.56250 C 282.40090 478.25014 281.87500 480.97848 281.87500 483.78125 C 281.87500 513.50150 327.74423 537.62501 384.28125 537.62500 C 401.92594 537.62500 418.53052 535.26112 433.03125 531.12500 C 359.10618 525.88358 300.71875 466.29058 300.71875 393.43750 C 300.71875 393.14234 300.74809 392.85723 300.75000 392.56250 z "
               transform="matrix(.24090 0 0 .31488 163.43 211.84)"
               inkscape:radius="-7.3747182" />
          </g>
        </g>
        <g
           id="g2786"
           transform="matrix(.94977 0 0 .94977 4.5926 -5.8252)">
          <rect
             id="rect2459"
             style="display:inline;fill:url(#linearGradient1926);fill-rule:evenodd"
             rx="5.9432001"
             ry="6.2828002"
             height="292.07999"
             width="364.98999"
             y="75.789001"
             x="82.207001" />
          <rect
             id="rect2457"
             style="display:inline;fill:url(#radialGradient1928);fill-rule:evenodd;stroke:url(#radialGradient1930);stroke-width:4;stroke-linejoin:round"
             rx="5.3453999"
             ry="5.3453999"
             height="248.5"
             width="328.28"
             y="89.683998"
             x="100.56" />
          <path
             id="path2588"
             style="display:inline;opacity:0.77727;fill:#ffffff;fill-rule:evenodd"
             d="m 88.156,77.781 c -2.158,0 -3.937,1.814 -3.937,4.281 v 2.407 c 2.333,-2.262 5.469,-3.688 8.969,-3.688 h 343.03 c 3.5,0 6.63,1.426 8.97,3.688 v -2.407 c 0,-2.467 -1.78,-4.281 -3.94,-4.281 H 88.158 Z" />
          <path
             id="path2591"
             style="display:inline;opacity:0.25;fill:#000000;fill-rule:evenodd"
             d="m 84.219,359.19 v 2.4 c 0,2.47 1.779,4.29 3.937,4.29 h 353.09 c 2.16,0 3.94,-1.82 3.94,-4.29 v -2.4 c -2.34,2.25 -5.48,3.69 -8.97,3.69 H 93.186 c -3.499,0 -6.637,-1.44 -8.971,-3.69 z" />
          <g
             id="g2665"
             transform="translate(-9.2731e-6,-0.45086)"
             style="display:inline">
            <circle
               id="path2613"
               style="fill:url(#radialGradient1932);fill-rule:evenodd;stroke:url(#linearGradient1934);stroke-width:1.4941;stroke-linejoin:round"
               transform="matrix(1.3386,0,0,1.3386,-119.75,-118.5)"
               cx="399.5"
               cy="351.5"
               r="4.5" />
            <circle
               id="path2651"
               style="opacity:0.82727;fill:url(#linearGradient1936);fill-rule:evenodd"
               transform="matrix(1.2207,0,0,1.2207,-72.672,-77.078)"
               cx="399.5"
               cy="351.5"
               r="4.5" />
          </g>
          <g
             id="g2677"
             transform="matrix(0.59729,0,0,0.59729,151.53,144.23)"
             style="display:inline">
            <circle
               id="path2679"
               style="fill:url(#radialGradient1932);fill-rule:evenodd;stroke:url(#linearGradient1934);stroke-width:1.2508;stroke-linejoin:round"
               transform="matrix(1.3386,0,0,1.3386,-119.75,-118.5)"
               cx="399.5"
               cy="351.5"
               r="4.5" />
            <circle
               id="path2681"
               style="opacity:0.82727;fill:url(#linearGradient1936);fill-rule:evenodd"
               transform="matrix(1.2207,0,0,1.2207,-72.672,-77.078)"
               cx="399.5"
               cy="351.5"
               r="4.5" />
          </g>
          <g
             id="g2713"
             transform="matrix(0.59729,0,0,0.59729,138.87,144.23)"
             style="display:inline">
            <circle
               id="path2715"
               style="fill:url(#radialGradient1932);fill-rule:evenodd;stroke:url(#linearGradient1934);stroke-width:1.2508;stroke-linejoin:round"
               transform="matrix(1.3386,0,0,1.3386,-119.75,-118.5)"
               cx="399.5"
               cy="351.5"
               r="4.5" />
            <circle
               id="path2717"
               style="opacity:0.82727;fill:url(#linearGradient1936);fill-rule:evenodd"
               transform="matrix(1.2207,0,0,1.2207,-72.672,-77.078)"
               cx="399.5"
               cy="351.5"
               r="4.5" />
          </g>
          <g
             id="g2725"
             transform="matrix(0.59729,0,0,0.59729,126.2,144.23)"
             style="display:inline">
            <circle
               id="path2727"
               style="fill:url(#radialGradient1932);fill-rule:evenodd;stroke:url(#linearGradient1934);stroke-width:1.2508;stroke-linejoin:round"
               transform="matrix(1.3386,0,0,1.3386,-119.75,-118.5)"
               cx="399.5"
               cy="351.5"
               r="4.5" />
            <circle
               id="path2729"
               style="opacity:0.82727;fill:url(#linearGradient1936);fill-rule:evenodd"
               transform="matrix(1.2207,0,0,1.2207,-72.672,-77.078)"
               cx="399.5"
               cy="351.5"
               r="4.5" />
          </g>
          <path
             id="path2768"
             style="display:inline;opacity:0.82727;fill:url(#radialGradient1956);fill-rule:evenodd"
             sodipodi:type="inkscape:offset"
             d="M 108.5625,97.6875 V 233.93555 C 135.70727,239.68841 165.10988,243 196,243 299.04545,243 386.58482,206.89929 420.84375,159.86914 V 97.6875 Z"
             inkscape:original="M 105.90625 89.687500 C 102.94489 89.687500 100.56250 92.069886 100.56250 95.031250 L 100.56250 240.50000 C 129.97557 247.23781 162.18295 251.00000 196.00000 251.00000 C 302.24428 251.00000 392.97239 214.26101 428.84375 162.59375 L 428.84375 95.031250 C 428.84375 92.069888 426.46136 89.687500 423.50000 89.687500 L 105.90625 89.687500 z "
             inkscape:radius="-8" />
        </g>
      </g>
    </g>
    <g
       aria-label=":("
       id="text367"
       style="font-weight:bold;font-size:146.667px;font-family:'Open Sans';-inkscape-font-specification:'Open Sans Bold';fill:#ffffff;stroke:#00003c;stroke-width:0.922"
       transform="translate(-58)">
      <path
         d="m 216.49692,231.91609 q 0,-6.73179 3.65235,-9.45315 3.72397,-2.72136 8.95185,-2.72136 5.08465,0 8.737,2.72136 3.72396,2.72136 3.72396,9.45315 0,6.44533 -3.72396,9.30992 -3.65235,2.86459 -8.737,2.86459 -5.22788,0 -8.95185,-2.86459 -3.65235,-2.86459 -3.65235,-9.30992 z m 0,-59.15378 q 0,-6.73179 3.65235,-9.45315 3.72397,-2.72136 8.95185,-2.72136 5.08465,0 8.737,2.72136 3.72396,2.72136 3.72396,9.45315 0,6.51694 -3.72396,9.38153 -3.65235,2.79297 -8.737,2.79297 -5.22788,0 -8.95185,-2.79297 -3.65235,-2.86459 -3.65235,-9.38153 z"
         id="path4869"
         style="display:inline" />
      <path
         d="m 255.81342,201.98112 q 0,-11.95966 2.29167,-23.34641 2.29167,-11.45836 7.08986,-21.84249 4.79819,-10.45576 12.17451,-19.33599 h 17.90369 q -10.02607,13.75004 -15.25395,30.36466 -5.15626,16.61462 -5.15626,34.017 0,11.31513 2.29167,22.55865 2.29168,11.1719 6.80341,21.55604 4.58334,10.38414 11.1719,19.4076 h -17.76046 q -7.37632,-8.59377 -12.17451,-18.83468 -4.79819,-10.1693 -7.08986,-21.41281 -2.29167,-11.31513 -2.29167,-23.13157 z"
         id="path4871" />
    </g>
  </g>
  <metadata
     id="metadata2847">
    <rdf:RDF>
      <cc:Work>
        <dc:format>image/svg+xml</dc:format>
        <dc:type
           rdf:resource="http://purl.org/dc/dcmitype/StillImage" />
        <cc:license
           rdf:resource="http://creativecommons.org/licenses/publicdomain/" />
        <dc:publisher>
          <cc:Agent
             rdf:about="http://openclipart.org/">
            <dc:title>Openclipart</dc:title>
          </cc:Agent>
        </dc:publisher>
        <dc:title>lcd monitor</dc:title>
        <dc:date>2009-04-03T14:14:01</dc:date>
        <dc:description />
        <dc:source>https://openclipart.org/detail/23901/lcd-monitor-by-anonymous-23901</dc:source>
        <dc:creator>
          <cc:Agent>
            <dc:title>Anonymous</dc:title>
          </cc:Agent>
        </dc:creator>
        <dc:subject>
          <rdf:Bag>
            <rdf:li>computer</rdf:li>
            <rdf:li>display</rdf:li>
            <rdf:li>lcd</rdf:li>
            <rdf:li>monitor</rdf:li>
          </rdf:Bag>
        </dc:subject>
      </cc:Work>
      <cc:License
         rdf:about="http://creativecommons.org/licenses/publicdomain/">
        <cc:permits
           rdf:resource="http://creativecommons.org/ns#Reproduction" />
        <cc:permits
           rdf:resource="http://creativecommons.org/ns#Distribution" />
        <cc:permits
           rdf:resource="http://creativecommons.org/ns#DerivativeWorks" />
      </cc:License>
    </rdf:RDF>
  </metadata>
</svg>
