<?xml version="1.0" encoding="UTF-8" standalone="no"?>
<!-- Created with Inkscape (http://www.inkscape.org/) -->
<svg xmlns:inkscape="http://www.inkscape.org/namespaces/inkscape" xmlns:rdf="http://www.w3.org/1999/02/22-rdf-syntax-ns#" xmlns="http://www.w3.org/2000/svg" xmlns:sodipodi="http://sodipodi.sourceforge.net/DTD/sodipodi-0.dtd" xmlns:cc="http://creativecommons.org/ns#" xmlns:xlink="http://www.w3.org/1999/xlink" xmlns:dc="http://purl.org/dc/elements/1.1/" xmlns:svg="http://www.w3.org/2000/svg" xmlns:ns1="http://sozi.baierouge.fr" id="svg13388" sodipodi:docname="table-tennis.svg" viewBox="0 0 500 400" version="1.1" inkscape:version="0.48.1 r9760">
  <defs id="defs13390">
    <filter id="filter3886" height="2.4792" width="1.0579" color-interpolation-filters="sRGB" y="-.73959" x="-.028935" inkscape:collect="always">
      <feGaussianBlur id="feGaussianBlur3888" stdDeviation="6.4394811" inkscape:collect="always"/>
    </filter>
    <linearGradient id="linearGradient3916" y2="543.05" gradientUnits="userSpaceOnUse" x2="519.07" y1="543.05" x1="-15.045" inkscape:collect="always">
      <stop id="stop3862" style="stop-color:#000000;stop-opacity:0" offset="0"/>
      <stop id="stop3868" style="stop-color:#000000" offset=".42549"/>
      <stop id="stop3864" style="stop-color:#000000;stop-opacity:0" offset="1"/>
    </linearGradient>
    <radialGradient id="radialGradient3918" gradientUnits="userSpaceOnUse" cy="491.64" cx="106.15" gradientTransform="matrix(1 0 0 .16092 0 412.53)" r="72.719" inkscape:collect="always">
      <stop id="stop3844" style="stop-color:#000000" offset="0"/>
      <stop id="stop3846" style="stop-color:#000000;stop-opacity:0" offset="1"/>
    </radialGradient>
    <linearGradient id="linearGradient3920" y2="399.89" gradientUnits="userSpaceOnUse" x2="2312.1" gradientTransform="matrix(.49835 -.065884 .065884 .49835 -840.33 857.76)" y1="122.39" x1="2335.1" inkscape:collect="always">
      <stop id="stop14382" style="stop-color:#deaa87" offset="0"/>
      <stop id="stop14384" style="stop-color:#c87137" offset="1"/>
    </linearGradient>
    <radialGradient id="radialGradient3922" gradientUnits="userSpaceOnUse" cy="310.12" cx="46.006" gradientTransform="matrix(.49835 -.065884 .063882 .48320 39.937 636.74)" r="345.24" inkscape:collect="always">
      <stop id="stop14063" style="stop-color:#ff2a2a" offset="0"/>
      <stop id="stop14061" style="stop-color:#be0d00" offset="1"/>
    </radialGradient>
    <linearGradient id="linearGradient3924" y2="293.37" gradientUnits="userSpaceOnUse" x2="2308.2" gradientTransform="matrix(.49835 -.065884 .065884 .49835 -839.63 859.19)" y1="315.42" x1="2345.4" inkscape:collect="always">
      <stop id="stop14353" style="stop-color:#d89a71" offset="0"/>
      <stop id="stop14355" style="stop-color:#e9c6af" offset="1"/>
    </linearGradient>
    <linearGradient id="linearGradient3926" y2="330.04" gradientUnits="userSpaceOnUse" x2="2505.4" gradientTransform="matrix(.49835 -.065884 .065884 .49835 -840.33 857.76)" y1="452.2" x1="2427.5" inkscape:collect="always">
      <stop id="stop14341" style="stop-color:#d38d5f" offset="0"/>
      <stop id="stop14347" style="stop-color:#f4e3d7" offset=".5"/>
      <stop id="stop14343" style="stop-color:#d38d5f" offset="1"/>
    </linearGradient>
    <radialGradient id="radialGradient3928" gradientUnits="userSpaceOnUse" cy="-242.24" cx="596.8" r="63.525" inkscape:collect="always">
      <stop id="stop3029" style="stop-color:#f9f9f9" offset="0"/>
      <stop id="stop3027" style="stop-color:#cccccc" offset="1"/>
    </radialGradient>
    <linearGradient id="linearGradient3930" y2="382.63" gradientUnits="userSpaceOnUse" x2="263.31" y1="477.08" x1="330.82" inkscape:collect="always">
      <stop id="stop3822" style="stop-color:#b3b3b3" offset="0"/>
      <stop id="stop3824" style="stop-color:#b3b3b3;stop-opacity:0" offset="1"/>
    </linearGradient>
    <linearGradient id="linearGradient3932" y2="915.35" gradientUnits="userSpaceOnUse" x2="246.59" y1="850.15" x1="210.88" inkscape:collect="always">
      <stop id="stop3834" style="stop-color:#ffffff" offset="0"/>
      <stop id="stop3836" style="stop-color:#ffffff;stop-opacity:0" offset="1"/>
    </linearGradient>
  </defs>
  <sodipodi:namedview id="base" bordercolor="#666666" inkscape:pageshadow="2" inkscape:window-y="26" pagecolor="#ffffff" inkscape:window-height="969" inkscape:window-maximized="1" inkscape:zoom="0.42298433" inkscape:window-x="0" showgrid="false" borderopacity="1.0" inkscape:current-layer="layer1" inkscape:cx="359.08042" inkscape:cy="226.35128" inkscape:window-width="1280" inkscape:pageopacity="0.0" inkscape:document-units="px">
    <inkscape:grid id="grid14237" enabled="true" visible="true" snapvisiblegridlinesonly="true" type="xygrid" empspacing="5"/>
  </sodipodi:namedview>
  <g id="layer1" inkscape:label="Ebene 1" inkscape:groupmode="layer" transform="translate(0 -652.36)">
    <g id="g3901" transform="matrix(.95625 0 0 .95625 10.516 89.52)">
      <path id="path3850" sodipodi:rx="267.05554" sodipodi:ry="10.448182" style="opacity:.3;filter:url(#filter3886);fill:url(#linearGradient3916)" sodipodi:type="arc" d="m519.07 543.05c0 5.7704-119.56 10.448-267.06 10.448-147.49 0-267.06-4.6778-267.06-10.448 0-5.7704 119.56-10.448 267.06-10.448 147.49 0 267.06 4.6778 267.06 10.448z" transform="matrix(.87950 0 0 0.64 24.025 607.03)" sodipodi:cy="543.04651" sodipodi:cx="252.01016"/>
      <path id="path3840" sodipodi:rx="72.719353" sodipodi:ry="11.701964" style="opacity:.5;fill:url(#radialGradient3918)" sodipodi:type="arc" d="m178.87 491.64c0 6.4628-32.558 11.702-72.719 11.702-40.162 0-72.719-5.2391-72.719-11.702 0-6.4628 32.558-11.702 72.719-11.702 40.162 0 72.719 5.2392 72.719 11.702z" transform="translate(145.1 489.02)" sodipodi:cy="491.64145" sodipodi:cx="106.15353"/>
      <path id="path14324" d="m262.2 931.98s37.456-38.916 62.392-43.607c16.271-3.0611 48.268 11.714 48.268 11.714l18.748-42.99s-27.804-19.086-35.199-33.496c-12.093-23.567-10.933-78.709-10.933-78.709z" sodipodi:nodetypes="caccacc" style="fill:url(#linearGradient3920)" inkscape:connector-curvature="0"/>
      <path id="path6604" d="m128.85 624.87c-59.814 6.55-111.84 54.71-123.56 113.64-11.864 46.616 2.0645 97.573 33.642 133.45 29.526 35.022 71.229 57.513 113.81 72.749 36.625 12.558 82.203 14.334 112.68-13.182 13.3-12.144 16.047-31.349 24.532-46.67 19.083-43.269 38.189-86.527 57.265-129.8-2.0864-39.999-33.756-70.233-65.312-90.841-38.435-24.055-83.271-39.067-128.72-40.655-8.1227-0.13583-16.301 0.24403-24.333 1.3065z" style="fill:url(#radialGradient3922)" inkscape:connector-curvature="0"/>
      <path id="path14349" d="m331.03 885.79 15.195-22.51 12.917-32.692s-12.322 4.9269-16.661 9.6575c-7.4196 8.0889-12.473 18.936-13.998 29.806-0.73795 5.2626 2.5466 15.738 2.5466 15.738z" sodipodi:nodetypes="cccaac" style="fill:url(#linearGradient3924)" inkscape:connector-curvature="0"/>
      <path id="path14329" d="m331 885.96 137.57 63.721s14.535-19.146 19.746-29.891c5.0243-10.36 10.842-32.797 10.842-32.797l-140.6-56.72z" sodipodi:nodetypes="ccaccc" style="fill:url(#linearGradient3926)" inkscape:connector-curvature="0"/>
      <path id="path3023" sodipodi:rx="63.524948" sodipodi:ry="63.524948" style="fill:url(#radialGradient3928)" sodipodi:type="arc" d="m638.59-217.16c0 35.084-28.441 63.525-63.525 63.525s-63.525-28.441-63.525-63.525 28.441-63.525 63.525-63.525 63.525 28.441 63.525 63.525z" transform="matrix(.72368 0 0 .72368 -166.25 1093.3)" sodipodi:cy="-217.16324" sodipodi:cx="575.06793"/>
      <path id="path3047" d="m290.5 362.22c1.5363 4.5885 2.4062 9.4882 2.4062 14.594 0 25.39-20.61 45.969-46 45.969-17.62 0-32.908-9.9157-40.625-24.469 6.0698 18.289 23.299 31.469 43.625 31.469 25.39 0 46-20.579 46-45.969 0-7.8087-1.9714-15.153-5.4062-21.594z" style="fill:url(#linearGradient3930)" inkscape:connector-curvature="0" transform="translate(0 552.36)"/>
      <path id="path3828" style="fill:url(#linearGradient3932)" inkscape:connector-curvature="0" d="m209.6 957.49c-1.5363-4.5885-2.4062-9.4882-2.4062-14.594 0-25.39 20.61-45.969 46-45.969 17.62 0 32.908 9.9157 40.625 24.469-6.0698-18.289-23.299-31.469-43.625-31.469-25.39 0-46 20.579-46 45.969 0 7.8087 1.9714 15.153 5.4062 21.594z"/>
      <g id="g3896" style="opacity:.5" transform="matrix(.092466 -.016440 .016440 .092466 261.94 861.47)">
        <path id="path3890" style="opacity:.3;fill:#000000" sodipodi:type="star" sodipodi:sides="5" inkscape:transform-center-x="0.19862006" sodipodi:r1="47.283077" sodipodi:r2="20.035349" inkscape:transform-center-y="0.41000713" sodipodi:arg1="0.64350111" sodipodi:arg2="1.2466987" transform="translate(-7 552.36)" inkscape:randomized="0" sodipodi:cy="20.076778" sodipodi:cx="-366.44385" inkscape:rounded="0" inkscape:flatsided="false" d="m-328.62 48.447-31.446-9.3776-21.673 25.75-0.79879-32.805-31.187-12.655 30.952-10.897 2.3983-33.571 19.928 26.07 32.669-8.093-18.636 27.009z"/>
        <path id="path3892" sodipodi:r2="20.035349" style="opacity:.3;fill:#000000" sodipodi:type="star" d="m-328.62 48.447-31.446-9.3776-21.673 25.75-0.79879-32.805-31.187-12.655 30.952-10.897 2.3983-33.571 19.928 26.07 32.669-8.093-18.636 27.009z" sodipodi:r1="47.283077" inkscape:transform-center-x="-0.19861629" inkscape:transform-center-y="0.41000713" transform="matrix(-1 0 0 1 -544.49 552.36)" sodipodi:arg2="1.2466987" sodipodi:arg1="0.64350111" inkscape:randomized="0" sodipodi:cy="20.076778" sodipodi:cx="-366.44385" inkscape:rounded="0" inkscape:flatsided="false" sodipodi:sides="5"/>
        <path id="path3894" style="opacity:.3;fill:#000000" sodipodi:type="star" sodipodi:sides="5" inkscape:transform-center-x="4.1852176" sodipodi:r1="47.283077" sodipodi:r2="20.035349" inkscape:transform-center-y="-2.079564" sodipodi:arg1="0.64350111" sodipodi:arg2="1.2466987" transform="matrix(-.94467 .32801 .32801 .94467 -628.37 658.98)" inkscape:randomized="0" sodipodi:cy="20.076778" sodipodi:cx="-366.44385" inkscape:rounded="0" inkscape:flatsided="false" d="m-328.62 48.447-31.446-9.3776-21.673 25.75-0.79879-32.805-31.187-12.655 30.952-10.897 2.3983-33.571 19.928 26.07 32.669-8.093-18.636 27.009z"/>
      </g>
    </g>
  </g>
  <metadata>
    <rdf:RDF>
      <cc:Work>
        <dc:format>image/svg+xml</dc:format>
        <dc:type rdf:resource="http://purl.org/dc/dcmitype/StillImage"/>
        <cc:license rdf:resource="http://creativecommons.org/licenses/publicdomain/"/>
        <dc:publisher>
          <cc:Agent rdf:about="http://openclipart.org/">
            <dc:title>Openclipart</dc:title>
          </cc:Agent>
        </dc:publisher>
        <dc:title>Table Tennis</dc:title>
        <dc:date>2011-08-01T00:53:35</dc:date>
        <dc:description/>
        <dc:source>https://openclipart.org/detail/152959/table-tennis-by-gnokii</dc:source>
        <dc:creator>
          <cc:Agent>
            <dc:title>gnokii</dc:title>
          </cc:Agent>
        </dc:creator>
        <dc:subject>
          <rdf:Bag>
            <rdf:li>ball</rdf:li>
            <rdf:li>game</rdf:li>
            <rdf:li>ping pong</rdf:li>
            <rdf:li>playing</rdf:li>
            <rdf:li>recreation</rdf:li>
            <rdf:li>sport</rdf:li>
            <rdf:li>sports</rdf:li>
          </rdf:Bag>
        </dc:subject>
      </cc:Work>
      <cc:License rdf:about="http://creativecommons.org/licenses/publicdomain/">
        <cc:permits rdf:resource="http://creativecommons.org/ns#Reproduction"/>
        <cc:permits rdf:resource="http://creativecommons.org/ns#Distribution"/>
        <cc:permits rdf:resource="http://creativecommons.org/ns#DerivativeWorks"/>
      </cc:License>
    </rdf:RDF>
  </metadata>
</svg>